<svg xmlns="http://www.w3.org/2000/svg" viewBox="0 0 50 50">
  <defs>
    <style>
      .cls-1,.cls-3{fill:#6e5946}.cls-2,.cls-4{fill:#fff}.cls-3,.cls-4{stroke:#fff;stroke-width:1.24px;stroke-miterlimit:10}.cls-4{stroke:#6e5946;stroke-width:.39px}
    </style>
  </defs>
  <g id="Calque_4" data-name="Calque 4">
    <path class="cls-1" d="M8.31 15.52L7.04 41.56 24.85 49l18.44-7.12-.63-26.43-17.38 6.64-16.97-6.57z"/>
    <path class="cls-2" d="M8.31 15.52L25.28 8.8l17.38 6.65-17.38 6.64-16.97-6.57z"/>
    <path class="cls-3" d="M8.31 15.52L1.66 23.2l17.89 7.36 5.73-8.47-16.97-6.57zM30.39 30.56l18.12-6.83-5.85-8.28-17.38 6.64 5.11 8.47z"/>
    <path class="cls-1" d="M1.85 8.29l6.65 8 16.97-6.73-5.42-8.39-18.2 7.12z"/>
    <path class="cls-2" d="M20.88 39.4l-.25-1.19.9-.76a13.1 13.1 0 011.56.48c-.26-1.31-2.37-1.94-3.56-.72l-4.41-1.55c.18-1.94-2.07-3-3.19-2.13a12.1 12.1 0 011.5.64l.2 1.16-1 .76s-1.14-.42-1.74-.66.86 3.56 3.6 1.43l4.34 1.52c.52 4 4.36 1.82 3.75 1.62s-1.7-.6-1.7-.6z"/>
    <path class="cls-4" d="M34.9 37.6l-.63-1.31-1.11-.29s-5.64 2.81-6 3c-.54.31-.39 2.89 1.33 2.81l6-2.84zM37.7 34.85l.42-.99 2.99-.71.54 1.2-2.37 1.8-1.1-.18-3.28 1.62-.57-1.18 3.37-1.56z"/>
    <path class="cls-1" d="M25.47 9.56l5.27-8.38L48.7 8.46l-6.27 7.75-16.96-6.65z"/>
  </g>
</svg>
