<svg xmlns="http://www.w3.org/2000/svg" viewBox="0 0 50 50"><defs><style>.cls-1,.cls-3{fill:#6e5946;}.cls-2{fill:#fff;}.cls-3{stroke:#fff;stroke-miterlimit:10;stroke-width:1.24px;}</style></defs><g id="Calque_4" data-name="Calque 4"><polygon class="cls-1" points="8.31 15.52 7.04 41.56 24.85 49 43.29 41.88 42.66 15.45 25.28 22.09 8.31 15.52"/><polygon class="cls-2" points="8.31 15.52 25.28 8.8 42.66 15.45 25.28 22.09 8.31 15.52"/><polygon class="cls-3" points="8.31 15.52 1.66 23.2 19.55 30.56 25.28 22.09 8.31 15.52"/><polygon class="cls-3" points="30.39 30.56 48.51 23.73 42.66 15.45 25.28 22.09 30.39 30.56"/><polygon class="cls-1" points="1.85 8.29 8.5 16.29 25.47 9.56 20.05 1.17 1.85 8.29"/><polygon class="cls-1" points="25.47 9.56 30.74 1.18 48.7 8.46 42.43 16.21 25.47 9.56"/></g></svg>