<svg id="Calque_1" data-name="Calque 1" xmlns="http://www.w3.org/2000/svg" viewBox="0 0 70 70"><defs><style>.cls-1{fill:#fff;stroke:#06b131;stroke-miterlimit:10;stroke-width:1.61px;}</style></defs><rect class="cls-1" x="32.2" y="4.06" width="0.88" height="15.05" transform="translate(-1.98 10.55) rotate(-17.83)"/><rect class="cls-1" x="39.06" y="3.94" width="0.9" height="15.05" transform="translate(6.74 -13.4) rotate(21.01)"/><polygon class="cls-1" points="33.74 29.37 34.53 28.27 17.07 4 16.28 5.1 33.74 29.37"/><polygon class="cls-1" points="34.2 51.9 33.74 50.48 11.22 64.58 11.68 66 34.2 51.9"/><polygon class="cls-1" points="33.81 38.91 33.47 37.43 9.95 47.94 10.3 49.42 33.81 38.91"/><polygon class="cls-1" points="37.19 29.37 36.4 28.27 53.86 4 54.65 5.1 37.19 29.37"/><polygon class="cls-1" points="36.73 51.9 37.19 50.48 59.7 64.58 59.24 66 36.73 51.9"/><polygon class="cls-1" points="37.12 38.91 37.46 37.43 60.98 47.94 60.63 49.42 37.12 38.91"/><rect class="cls-1" x="34.06" y="18.07" width="3.76" height="38.71"/></svg>