<svg xmlns="http://www.w3.org/2000/svg" viewBox="0 0 50 50">
  <defs>
    <style>
      .cls-3{fill:none;stroke-miterlimit:10;stroke:#add448;stroke-width:.25px}
    </style>
  </defs>
  <g id="Calque_3" data-name="Calque 3">
    <path d="M24.36 50.5s-2.28-9.19-1.07-13.1" stroke="#b59a6f" stroke-linecap="round" stroke-width=".5" fill="none" stroke-miterlimit="10"/>
    <path d="M23.15 38.09c-2 2-8 5-16-2 .5-3.5-1.5-8.5-3.5-13.5-1-4 2-2 9-4 15-14 12-23 24 3 7 5 17 1 3 15-3 8-15 5-16.5 1.5z" fill="#759031"/>
    <path class="cls-3" d="M23 36.78c1.15-2.05.72-4.57.75-6.92 0-3.18 1-6.33.83-9.52a14 14 0 010-3.23c.13-.67.4-1.31.53-2s.09-1.65.17-2.48c.2-2 1.25-3.9.87-5.85M23.07 38.26c.2-.35.59-1.26.81-1.59a13.55 13.55 0 016-4.62c.84-.36 1.69-.67 2.55-1l6.42-2.29 3.15-1.1a11.8 11.8 0 011.66-.51 3.07 3.07 0 001.8-.7"/>
    <path class="cls-3" d="M3.69 20.93c.94 0 1.52.74 2.24 1.34 1.32 1.08 3 1.6 4.45 2.51a17.35 17.35 0 011.83 1.36L14 27.61l1.29 1c1.28 1.06 2.53 2.17 3.74 3.31a1.26 1.26 0 01.33.4c.06.14.07.31.13.45.16.34.57.47.9.65a4.68 4.68 0 011.27 1 4.85 4.85 0 011.08 1.31 4.9 4.9 0 01.3 2.45M23.82 31.56c.6-.84 1.25-1.58 1.86-2.42a9.93 9.93 0 01.86-1.08 6.53 6.53 0 01.8-.68 22 22 0 016.13-2.79 4.16 4.16 0 011.3-.29M23.8 29a5 5 0 00-1.4-2.6c-.76-1-1.52-1.91-2.35-2.8a8.62 8.62 0 01-1.71-2.15 6.88 6.88 0 01-.13-4 8 8 0 00.06-4.06M21.8 10.25a1.5 1.5 0 01-.24 1.09 5.36 5.36 0 00-.34.49 1.42 1.42 0 00-.12.46 8.28 8.28 0 001.67 5.56 19.62 19.62 0 001.81 2.06M24.54 22.79c.3 0 .32-.24.46-.52s.19-.58.34-.85a3.82 3.82 0 01.94-.94c.69-.59 1.25-1.33 2-1.87A7.67 7.67 0 0030.33 17a4.2 4.2 0 00.46-1.3l.51-2.26M25.26 14.09a25.88 25.88 0 003.62-2.23 2.49 2.49 0 00.72-.65 1 1 0 00.16-.92M10.35 21a6.32 6.32 0 013 1.53 3.47 3.47 0 01.45.4 3.94 3.94 0 01.54.81 24.43 24.43 0 011.31 2.67 12.25 12.25 0 01.77 3.1"/>
    <path class="cls-3" d="M8.5 32a1.81 1.81 0 001.33-.36c.56-.44.84-1.2 1.48-1.52a2.92 2.92 0 011-.22 7 7 0 001.21-.2c.76-.2 1.48-.78 2.26-.69M8.25 36.16a7.59 7.59 0 001.84-.28c.41-.14.79-.35 1.2-.5a7.08 7.08 0 011.12-.29 12.94 12.94 0 014.38-.3 16 16 0 011.67.36c1.49.37 2.36.44 3.84.84-.06 0 .51.27.46.25a1.73 1.73 0 01.36 1.16M23.24 37.74c1-.16 2.3-1.2 3.31-1.27.52 0 1.05-.06 1.57-.14a7.92 7.92 0 013-.42 6.22 6.22 0 012.48 1.61 9.68 9.68 0 003.58 1.8M18.52 26.52c.36 1.15.92 2.22 1.35 3.35a6.8 6.8 0 01.52 3.52M31.85 31.29c.6-1.29 1.82-2.25 2.29-3.6a4.27 4.27 0 01.55-1.4 2.75 2.75 0 011.61-.77l3.64-.83M39.61 28.5a3.1 3.1 0 01.28-1.34c.18-.33.39-.64.55-1a2.13 2.13 0 01.33-.59.5.5 0 01.61-.14M32.26 31.12a12.91 12.91 0 012.55.84c.8.34 1.57.77 2.4 1a3.91 3.91 0 002.57.08M38.25 29a5.57 5.57 0 013.08 1.67.44.44 0 00.51.13 4.63 4.63 0 011.7-.13M31.75 36.13c.34-.17.72-.41 1-.58a3.71 3.71 0 011.67-.55 3.49 3.49 0 011.06.16l.94.23M29.52 26.1a4.34 4.34 0 01.95-1.72 3.08 3.08 0 00.88-1.22 2.5 2.5 0 00.07-.67 11.22 11.22 0 000-1.42 10.71 10.71 0 01-.12-1.39c0-1 .57-2 .48-3M14.9 18.9a4.07 4.07 0 002.31 3.72 8.89 8.89 0 001.1.37c.38.11.93.1 1.31.21M20.63 24.26c0-.56.49-1 .7-1.48a2.19 2.19 0 00.13-.77 2.7 2.7 0 00-.22-1.38c-.3-.58-.95-1-1-1.67M27.63 27.09a4.34 4.34 0 01-.05-2.47c.09-.2.2-.38.3-.56a5.55 5.55 0 00.65-2.13M28.33 32.81a2.9 2.9 0 01.25-1.81 4.35 4.35 0 01.46-.6 5.43 5.43 0 001.23-3.3"/>
    <path class="cls-3" d="M30.17 35.88c.58.28 1.11.07 1.56.48a3.29 3.29 0 01.86 1.6c.07.28.1.57.17.84a.36.36 0 00.07.17 1.5 1.5 0 00.29.27 8.38 8.38 0 01.89 1M26.67 36.46a9.89 9.89 0 011.57 1.15 9.37 9.37 0 00.8.87 1.16 1.16 0 01.2.18c.2.26.13.63.2 1M23.07 38.33c.75 0 1.31-.52 2.06-.47a1.9 1.9 0 01.67.13 2.8 2.8 0 01.68.52 3.73 3.73 0 001.67.84M32.88 39.14a1.42 1.42 0 00-.44.53c0 .06 0 .11-.08.16a.7.7 0 01-.25.15l-.67.27M29 18.05c-.24-.54-.48-1.2-.71-1.75a1.53 1.53 0 01-.14-.46 1.31 1.31 0 01.69-1.1M8.31 23.71v-1.6A1.82 1.82 0 008 21M15.72 34.78a2.19 2.19 0 01-.38 1.06 4.5 4.5 0 01-.68.63l-.87.68a1.08 1.08 0 00-.41.49M16.48 39.36c2-1 4.36-1 6.59-1.1M7.61 28.51c1.1.21 2.05 1 3.17 1.07a3 3 0 011.34.14.93.93 0 00.37.16M5.74 24.67a1.33 1.33 0 00.82.77 3.63 3.63 0 001.14.18 2 2 0 001-.12 4.34 4.34 0 00.61-.5c.2-.15.45-.57.68-.5M9.74 27.14a11.23 11.23 0 012.62-.88M12.82 22.18a2.74 2.74 0 01-.1-.69 3.45 3.45 0 01.1-.56 2.77 2.77 0 000-1.82M15.92 17.05a2.23 2.23 0 00.51.6 2.34 2.34 0 00.52.42 2.36 2.36 0 001.12 0M33.71 24.55a8.15 8.15 0 00.7-1.34 3 3 0 00.21-.64 4 4 0 00-.31-1.91M35.23 25.83a3.22 3.22 0 01.09-1 .4.4 0 01.08-.16.56.56 0 01.24-.16 2.11 2.11 0 00.58-.39.9.9 0 00.27-.63M31.26 20.55l.56-.12a1.2 1.2 0 00.46-.16c.5-.31.43-1.12.89-1.49.11-.08.24-.14.36-.21a.46.46 0 00.23-.33M28 12.44c-.08-.21-.16-.43-.22-.64a3.41 3.41 0 01-.15-.69 3.64 3.64 0 01.67-2M29.3 11.63a2.72 2.72 0 00.57 0 .68.68 0 00.48-.28M25.81 9.56a1.28 1.28 0 01-.63-.28.84.84 0 01-.18-.18 1 1 0 01-.11-.23 4.11 4.11 0 01-.17-.57M21.05 13.41a13.08 13.08 0 011.18-.75 1.51 1.51 0 00.77-1.11M21.72 16.14a5.54 5.54 0 01-1.15 0 1.21 1.21 0 01-.74-.31"/>
  </g>
</svg>
