<svg xmlns="http://www.w3.org/2000/svg" viewBox="0 0 50 50"><defs><style>.cls-1{fill:none;stroke:#759031;stroke-miterlimit:10;stroke-width:0.42px;}.cls-2{fill:#fff;}.cls-3{fill:#759031;}</style></defs><g id="Calque_5" data-name="Calque 5"><polygon class="cls-1" points="8.94 23.11 24.73 5.63 42.38 23.21 42.37 44.56 31.08 44.56 30.93 33.57 19.68 33.62 19.56 44.56 8.98 44.56 8.94 23.11"/><path class="cls-2" d="M42.35,46.63c-1.8,0-3.59,0-5.38,0q-3.09,0-6.17,0h0a1.86,1.86,0,0,1-1.4-.41,1.84,1.84,0,0,1-.4-1.38c0-2.19,0-4.39,0-6.62v-2.5H21.53v4.9c0,.5,0,1,0,1.48,0,1,0,2,0,2.94a1.63,1.63,0,0,1-.36,1.21,1.39,1.39,0,0,1-1.06.36H8.39c-.93,0-1.39-.49-1.39-1.45V40.77c0-5.7,0-11.41,0-17.11C5.8,24.9,4.49,26.2,3.14,27.47a2.13,2.13,0,0,1-1.21.4,4.51,4.51,0,0,0-.55.09L1.05,28l.09-.33c0-.17.07-.36.1-.55a2.21,2.21,0,0,1,.43-1.22C2.82,24.72,4,23.54,5.18,22.36S7.54,20,8.68,18.8A3.19,3.19,0,0,0,9.41,17a19.84,19.84,0,0,0,0-2c0-.69,0-1.4,0-2.1a1.86,1.86,0,0,1,.59-1,4.19,4.19,0,0,0,.28-.34l.17-.22.17.22a3.27,3.27,0,0,0,.3.35,1.78,1.78,0,0,1,.58,1,14,14,0,0,1,.06,2.27c0,.24,0,.5,0,.76l.05,0c.37-.33.65-.57.91-.82l3.09-3.08c2.53-2.52,5.15-5.13,7.7-7.74a2,2,0,0,1,1.39-.78,2.12,2.12,0,0,1,1.45.81Q34.93,13,43.7,21.71l4.6,4.6.17.16a2,2,0,0,1,.6.79,1.46,1.46,0,0,1-.26,1.19,1,1,0,0,1-.71.26,1,1,0,0,1-.43-.09,3.09,3.09,0,0,1-.88-.7l-2.44-2.44v5.11c0,4.67,0,9.34,0,14a2.11,2.11,0,0,1-.44,1.58,2,2,0,0,1-1.45.44Zm-.19-2.28V24.06c0-.25,0-.51,0-.76L31.25,12.37l-5.51-5.5-.83-.8-.18-.16c-3.89,3.91-7.66,8.18-11,12-1.08,1.23-2.13,2.42-3.14,3.55-.18.18-.47.54-.75.9s-.44.57-.61.77a.39.39,0,0,1,0,.14v.2H9.16c0,5.21,0,10.39,0,15.57v5.34H19.35V38.21c0-.89,0-1.77,0-2.66,0-2,.16-2.15,2.12-2.17l5.23,0,2.61,0h.13a1.81,1.81,0,0,1,1.37.44,1.86,1.86,0,0,1,.41,1.44c0,1.82,0,3.68,0,5.49V43.1c0,.32,0,.64.05,1l0,.27Z"/><path class="cls-3" d="M24.76,3.58a1.94,1.94,0,0,1,1.3.75q11,11.1,22.09,22.13a2.42,2.42,0,0,1,.72.86,1.27,1.27,0,0,1-.22,1,.79.79,0,0,1-.55.18.75.75,0,0,1-.35-.07,3.63,3.63,0,0,1-1-.81L44.15,25c0,6.55,0,13.08,0,19.63,0,1.34-.4,1.81-1.68,1.81h-.13c-1.79,0-3.58,0-5.38,0-2.06,0-4.12,0-6.17,0h-.07c-1.13,0-1.55-.42-1.53-1.58.05-3.07,0-6.16,0-9.32h-7.9v5.1c0,1.48,0,3,0,4.42,0,.87-.28,1.37-1.21,1.37l-5.86,0-5.86,0c-.84,0-1.18-.42-1.18-1.25,0-7.32,0-14.65,0-22,0,0,0,0,0-.05C5.86,24.54,4.45,26,3,27.32c-.35.33-1.1.3-1.66.43.15-.58.13-1.31.48-1.68,2.29-2.41,4.72-4.72,7-7.13a3.42,3.42,0,0,0,.79-2c.11-1.36,0-2.76.08-4.14,0-.42.53-.81.83-1.21.3.4.8.76.85,1.19a30.15,30.15,0,0,1,0,3.48c.6-.53,1-.85,1.31-1.18C16.33,11.51,20,8,23.51,4.3a1.87,1.87,0,0,1,1.25-.72M9,23.14s0,.06,0,.11C9,29.81,9,36.38,9,43v1.61H19.56v-5c0-1.33,0-2.66,0-4,0-1.88.06-1.94,1.91-2h8c1.13,0,1.6.44,1.57,1.66-.06,2.61,0,5.24,0,7.85,0,.46.05.93.08,1.46H42.37V24.06c0-.28,0-.56,0-.85Q34.13,15,25.89,6.72c-.33-.33-.68-.65-1.16-1.09-5.19,5.18-10.07,10.93-14.29,15.65-.36.36-1.14,1.46-1.5,1.83l0,0m0,0s.09.12.07.12,0,0-.1-.1l0,0m15.77-20A2.17,2.17,0,0,0,23.22,4c-2.54,2.6-5.16,5.21-7.69,7.73l-3.1,3.08-.59.54a2.81,2.81,0,0,1,0-.29,14.41,14.41,0,0,0-.06-2.3,2,2,0,0,0-.64-1.06l-.29-.33-.33-.45-.33.45a4,4,0,0,1-.28.32,2.09,2.09,0,0,0-.64,1.11c-.06.71,0,1.42,0,2.11a19.23,19.23,0,0,1,0,2,3.07,3.07,0,0,1-.67,1.72c-1.14,1.2-2.34,2.4-3.5,3.55s-2.36,2.37-3.51,3.58A2.42,2.42,0,0,0,1,27.12a4.51,4.51,0,0,1-.1.53l-.17.66.67-.15c.17,0,.35-.06.53-.09a2.31,2.31,0,0,0,1.33-.45c1.21-1.15,2.4-2.32,3.53-3.46,0,5.55,0,11.17,0,16.61v4.39a1.46,1.46,0,0,0,1.6,1.66H20.1a1.62,1.62,0,0,0,1.21-.42A1.8,1.8,0,0,0,21.74,45c0-1,0-2,0-2.94,0-.49,0-1,0-1.48V35.93H28.8c0,.77,0,1.54,0,2.3,0,2.27,0,4.42,0,6.61a2,2,0,0,0,.46,1.52,2,2,0,0,0,1.49.48h.07c2.27,0,4.29-.05,6.17-.05s3.66,0,5.37.05h.14a2.15,2.15,0,0,0,1.6-.5,2.31,2.31,0,0,0,.5-1.73c0-4.68,0-9.43,0-14V26l.61.61,1.33,1.32.14.15a3.46,3.46,0,0,0,.94.75A1.34,1.34,0,0,0,49,28.58a1.63,1.63,0,0,0,.3-1.37,2.21,2.21,0,0,0-.66-.89c-.06-.05-.11-.11-.16-.16L44,21.74C38.23,16,32.23,10,26.35,4a2.31,2.31,0,0,0-1.59-.88Zm-15.29,20,.55-.68c.27-.35.55-.71.72-.88L13.9,18c3.29-3.73,7-8,10.84-11.81l0,0c.32.29.58.54.83.79l5.52,5.52Q36.53,18,42,23.38c0,.23,0,.45,0,.68V44.15H31.47v-.09c0-.33-.05-.65-.05-1,0-.78,0-1.57,0-2.35,0-1.81,0-3.67,0-5.49A2.08,2.08,0,0,0,31,33.67a2,2,0,0,0-1.52-.5h-.13l-2.61,0H21.47c-2.09,0-2.33.27-2.33,2.38,0,.88,0,1.77,0,2.66v5.94H9.4V39c0-5,0-10.23,0-15.35h.1v-.42a.34.34,0,0,0,0-.1Z"/><path class="cls-3" d="M42.38,23.21c0,.29,0,.57,0,.85v20.5H31.08c0-.53-.08-1-.08-1.46,0-2.61-.05-5.24,0-7.85,0-1.26-.48-1.69-1.69-1.66-2.61,0-5.24,0-7.85,0-1.85,0-1.91.08-1.91,2,0,1.33,0,2.66,0,4v5H9V43c0-6.57,0-13.14,0-19.7,0-.38.27.24,0-.14.36-.37,1.55-1.94,1.91-2.3,5.07-5.09,8.69-10,13.88-15.18.48.44.83.76,1.16,1.09Q34.14,15,42.38,23.21Z"/></g></svg>