<svg xmlns="http://www.w3.org/2000/svg" viewBox="0 0 50 50">
  <defs>
    <style>
      .cls-4{stroke-miterlimit:10}.cls-3{fill:#759031}.cls-4{stroke:#fff;stroke-width:.36px}
    </style>
  </defs>
  <g id="Calque_5" data-name="Calque 5">
    <path stroke-miterlimit="10" fill="none" stroke="#759031" stroke-width=".42" d="M8.94 23.11L24.73 5.63l17.65 17.58-.01 21.35H31.08l-.15-10.99-11.25.05-.12 10.94H8.98l-.04-21.45z"/>
    <path d="M42.35 46.63H30.8a1.86 1.86 0 01-1.4-.41 1.84 1.84 0 01-.4-1.38V35.72h-7.47v9.32a1.63 1.63 0 01-.36 1.21 1.39 1.39 0 01-1.06.36H8.39c-.93 0-1.39-.49-1.39-1.45v-4.39-17.11c-1.2 1.24-2.51 2.54-3.86 3.81a2.13 2.13 0 01-1.21.4 4.51 4.51 0 00-.55.09l-.33.04.09-.33c0-.17.07-.36.1-.55a2.21 2.21 0 01.43-1.22c1.15-1.18 2.33-2.36 3.51-3.54S7.54 20 8.68 18.8a3.19 3.19 0 00.73-1.8 19.84 19.84 0 000-2v-2.1a1.86 1.86 0 01.59-1 4.19 4.19 0 00.28-.34l.17-.22.17.22a3.27 3.27 0 00.3.35 1.78 1.78 0 01.58 1 14 14 0 01.06 2.27v.76h.05c.37-.33.65-.57.91-.82l3.09-3.08c2.53-2.52 5.15-5.13 7.7-7.74a2 2 0 011.39-.78 2.12 2.12 0 011.45.81Q34.93 13 43.7 21.71l4.6 4.6.17.16a2 2 0 01.6.79 1.46 1.46 0 01-.26 1.19 1 1 0 01-.71.26 1 1 0 01-.43-.09 3.09 3.09 0 01-.88-.7l-2.44-2.44v19.11a2.11 2.11 0 01-.44 1.58 2 2 0 01-1.45.44zm-.19-2.28V24.06v-.76L31.25 12.37l-5.51-5.5-.83-.8-.18-.16c-3.89 3.91-7.66 8.18-11 12a541.57 541.57 0 01-3.14 3.55c-.18.18-.47.54-.75.9s-.44.57-.61.77a.39.39 0 010 .14v.2h-.07v20.91h10.19v-6.17-2.66c0-2 .16-2.15 2.12-2.17h7.97a1.81 1.81 0 011.37.44 1.86 1.86 0 01.41 1.44v7.84c0 .32 0 .64.05 1v.27z" fill="#fff"/>
    <path class="cls-3" d="M24.76 3.58a1.94 1.94 0 011.3.75q11 11.1 22.09 22.13a2.42 2.42 0 01.72.86 1.27 1.27 0 01-.22 1 .79.79 0 01-.55.18.75.75 0 01-.35-.07 3.63 3.63 0 01-1-.81L44.15 25v19.63c0 1.34-.4 1.81-1.68 1.81H30.72c-1.13 0-1.55-.42-1.53-1.58.05-3.07 0-6.16 0-9.32h-7.9v9.52c0 .87-.28 1.37-1.21 1.37H8.36c-.84 0-1.18-.42-1.18-1.25v-22-.05C5.86 24.54 4.45 26 3 27.32c-.35.33-1.1.3-1.66.43.15-.58.13-1.31.48-1.68 2.29-2.41 4.72-4.72 7-7.13a3.42 3.42 0 00.79-2c.11-1.36 0-2.76.08-4.14 0-.42.53-.81.83-1.21.3.4.8.76.85 1.19a30.15 30.15 0 010 3.48c.6-.53 1-.85 1.31-1.18C16.33 11.51 20 8 23.51 4.3a1.87 1.87 0 011.25-.72M9 23.14v21.47h10.56v-5-4c0-1.88.06-1.94 1.91-2h8c1.13 0 1.6.44 1.57 1.66-.06 2.61 0 5.24 0 7.85 0 .46.05.93.08 1.46h11.25V24.06v-.85Q34.13 15 25.89 6.72c-.33-.33-.68-.65-1.16-1.09-5.19 5.18-10.07 10.93-14.29 15.65-.36.36-1.14 1.46-1.5 1.83m0 0s.09.12.07.12 0 0-.1-.1m15.77-20a2.17 2.17 0 00-1.46.87c-2.54 2.6-5.16 5.21-7.69 7.73l-3.1 3.08-.59.54a2.81 2.81 0 010-.29 14.41 14.41 0 00-.06-2.3 2 2 0 00-.64-1.06l-.29-.33-.33-.45-.33.45a4 4 0 01-.28.32 2.09 2.09 0 00-.64 1.11c-.06.71 0 1.42 0 2.11a19.23 19.23 0 010 2 3.07 3.07 0 01-.67 1.72c-1.14 1.2-2.34 2.4-3.5 3.55s-2.36 2.37-3.51 3.58A2.42 2.42 0 001 27.12a4.51 4.51 0 01-.1.53l-.17.66.67-.15c.17 0 .35-.06.53-.09a2.31 2.31 0 001.33-.45c1.21-1.15 2.4-2.32 3.53-3.46v21a1.46 1.46 0 001.6 1.66H20.1a1.62 1.62 0 001.21-.42 1.8 1.8 0 00.43-1.4v-2.94V35.93h7.06v8.91a2 2 0 00.46 1.52 2 2 0 001.49.48h.07c2.27 0 4.29-.05 6.17-.05s3.66 0 5.37.05h.14a2.15 2.15 0 001.6-.5 2.31 2.31 0 00.5-1.73V26l.61.61 1.33 1.32.14.15a3.46 3.46 0 00.94.75 1.34 1.34 0 001.38-.25 1.63 1.63 0 00.3-1.37 2.21 2.21 0 00-.66-.89c-.06-.05-.11-.11-.16-.16L44 21.74C38.23 16 32.23 10 26.35 4a2.31 2.31 0 00-1.59-.88zm-15.29 20l.55-.68c.27-.35.55-.71.72-.88L13.9 18c3.29-3.73 7-8 10.84-11.81.32.29.58.54.83.79l5.52 5.52Q36.53 18 42 23.38v20.77H31.47v-.09c0-.33-.05-.65-.05-1v-2.35-5.49a2.08 2.08 0 00-.42-1.55 2 2 0 00-1.52-.5h-8.01c-2.09 0-2.33.27-2.33 2.38V44.15H9.4V39 23.65h.1v-.42a.34.34 0 000-.1z"/>
    <path class="cls-3" d="M42.38 23.21v21.35h-11.3c0-.53-.08-1-.08-1.46 0-2.61-.05-5.24 0-7.85 0-1.26-.48-1.69-1.69-1.66h-7.85c-1.85 0-1.91.08-1.91 2v9H9V43 23.3c0-.38.27.24 0-.14.36-.37 1.55-1.94 1.91-2.3 5.07-5.09 8.69-10 13.88-15.18.48.44.83.76 1.16 1.09Q34.14 15 42.38 23.21z"/>
    <path class="cls-4" transform="rotate(-17.83 24.807 17.576)" d="M24.71 15.86h.2v3.4h-.2z"/>
    <path class="cls-4" transform="rotate(21.01 26.374 17.534)" d="M26.26 15.83h.2v3.4h-.2z"/>
    <path class="cls-4" d="M25.06 21.58l.18-.25-3.95-5.48-.18.24 3.95 5.49zM25.17 26.67l-.11-.32-5.09 3.19.1.32 5.1-3.19zM25.08 23.74L25 23.4l-5.32 2.38.08.33 5.32-2.37zM25.84 21.58l-.18-.25 3.95-5.48.18.24-3.95 5.49zM25.74 26.67l.1-.32 5.09 3.19-.1.32-5.09-3.19zM25.82 23.74l.08-.34 5.32 2.38-.08.33-5.32-2.37z"/>
    <path stroke="#fff" stroke-width=".36" fill="#759031" stroke-miterlimit="10" d="M25.13 19.03h.85v8.75h-.85z"/>
  </g>
</svg>
