<svg id="Calque_2" data-name="Calque 2" xmlns="http://www.w3.org/2000/svg" viewBox="0 0 794.36 253.8"><defs><style>.cls-1{fill:#fff;stroke:#000;stroke-width:1.08px;}.cls-1,.cls-3,.cls-4,.cls-5{stroke-miterlimit:10;}.cls-2{fill:aqua;}.cls-3{fill:#00c807;}.cls-3,.cls-4,.cls-5{stroke:#007e07;}.cls-4{stroke-width:0.88px;}</style></defs><rect class="cls-1" x="82.46" y="113.4" width="638.1" height="126.9"/><rect x="67.16" y="146.7" width="669.6" height="5.4" transform="translate(803.93 298.8) rotate(180)"/><rect class="cls-2" x="82.46" y="202.8" width="638.1" height="37.5"/><ellipse class="cls-3" cx="309.08" cy="142.18" rx="10.8" ry="4.05"/><ellipse class="cls-3" cx="417.98" cy="141.47" rx="10.8" ry="4.05"/><ellipse class="cls-3" cx="435.38" cy="142.18" rx="10.8" ry="4.05"/><ellipse class="cls-3" cx="456.98" cy="142.18" rx="10.8" ry="4.05"/><ellipse class="cls-3" cx="477.38" cy="142.18" rx="10.8" ry="4.05"/><ellipse class="cls-3" cx="647.36" cy="142.29" rx="10.8" ry="4.05"/><ellipse class="cls-3" cx="664.76" cy="143.01" rx="10.8" ry="4.05"/><ellipse class="cls-3" cx="686.36" cy="143.01" rx="10.8" ry="4.05"/><ellipse class="cls-3" cx="706.76" cy="143.01" rx="10.8" ry="4.05"/><ellipse class="cls-3" cx="592.37" cy="141.83" rx="10.8" ry="4.05" transform="translate(-11.89 65.14) rotate(-6.23)"/><ellipse class="cls-3" cx="609.75" cy="140.65" rx="10.8" ry="4.05" transform="translate(-11.66 67.02) rotate(-6.23)"/><ellipse class="cls-3" cx="631.22" cy="138.3" rx="10.8" ry="4.05" transform="translate(-11.28 69.33) rotate(-6.23)"/><ellipse class="cls-3" cx="629.45" cy="142.29" rx="10.8" ry="4.05" transform="translate(-11.73 69.16) rotate(-6.23)"/><ellipse class="cls-3" cx="324.68" cy="142.18" rx="4.05" ry="10.8" transform="translate(105.72 420.91) rotate(-75.5)"/><ellipse class="cls-3" cx="350.78" cy="141.47" rx="4.05" ry="10.8" transform="translate(125.97 445.64) rotate(-75.5)"/><ellipse class="cls-3" cx="340.28" cy="141.47" rx="4.05" ry="10.8" transform="translate(118.1 435.47) rotate(-75.5)"/><ellipse class="cls-3" cx="102.68" cy="141.83" rx="10.8" ry="4.05"/><ellipse class="cls-3" cx="118.28" cy="141.83" rx="4.05" ry="10.8" transform="translate(-48.65 220.82) rotate(-75.5)"/><ellipse class="cls-3" cx="144.38" cy="141.11" rx="4.05" ry="10.8" transform="translate(-28.39 245.55) rotate(-75.5)"/><ellipse class="cls-3" cx="133.88" cy="141.11" rx="4.05" ry="10.8" transform="translate(-36.27 235.38) rotate(-75.5)"/><ellipse class="cls-3" cx="159.08" cy="143.36" rx="10.8" ry="4.05"/><ellipse class="cls-3" cx="174.68" cy="143.36" rx="4.05" ry="10.8" transform="translate(-7.86 276.58) rotate(-75.5)"/><ellipse class="cls-3" cx="200.78" cy="142.65" rx="4.05" ry="10.8" transform="translate(12.39 301.31) rotate(-75.5)"/><ellipse class="cls-3" cx="190.28" cy="142.65" rx="4.05" ry="10.8" transform="translate(4.52 291.14) rotate(-75.5)"/><line class="cls-3" x1="102.68" y1="141.83" x2="82.46" y2="37.8"/><path d="M68.2,32.09a2.5,2.5,0,0,1-2.18-1,5.15,5.15,0,0,1-.74-3A5.15,5.15,0,0,1,66,25a2.84,2.84,0,0,1,4.36,0,5.15,5.15,0,0,1,.74,3,5.15,5.15,0,0,1-.74,3A2.5,2.5,0,0,1,68.2,32.09Zm0-.85c1.34,0,2-1.07,2-3.2s-.66-3.19-2-3.19-2,1.07-2,3.19S66.86,31.24,68.2,31.24Z"/><path d="M73,31.94v-7.8H77.8V25H73.86v2.57h3.36v.84H73.86V31.1H77.8v.84Z"/><path d="M82.12,32.09a2.59,2.59,0,0,1-1.91-.67,2.52,2.52,0,0,1-.67-1.89V24.14h.89v5.27c0,1.22.57,1.83,1.7,1.83s1.71-.61,1.71-1.83V24.14h.86v5.39A2.52,2.52,0,0,1,84,31.42,2.56,2.56,0,0,1,82.12,32.09Z"/><path d="M87,31.94v-7.8h4.82V25H87.83V27.6h3.36v.84H87.83v3.5Z"/><path d="M95.93,32.09a3.81,3.81,0,0,1-2.71-1l.49-.71a3.11,3.11,0,0,0,2.25.87,2.11,2.11,0,0,0,1.35-.38,1.34,1.34,0,0,0,.47-1.1,1.14,1.14,0,0,0-.28-.84,1.73,1.73,0,0,0-.88-.43l-1.26-.29A2.58,2.58,0,0,1,94,27.5a1.84,1.84,0,0,1-.45-1.3,2,2,0,0,1,.71-1.62A2.87,2.87,0,0,1,96.16,24a3.74,3.74,0,0,1,2.41.82l-.45.72a3.1,3.1,0,0,0-2-.69,2,2,0,0,0-1.25.34,1.15,1.15,0,0,0-.45,1,1.07,1.07,0,0,0,.28.77,1.89,1.89,0,0,0,.89.42l1.26.29a2.51,2.51,0,0,1,1.37.7,2,2,0,0,1,.44,1.38A2.19,2.19,0,0,1,98,31.46,3,3,0,0,1,95.93,32.09Z"/><rect x="76.84" y="105.4" width="650.63" height="6"/><rect x="78.33" y="111.38" width="2.41" height="9"/><rect x="722.28" y="108.9" width="2.41" height="9"/><line class="cls-4" x1="731.36" y1="147.4" x2="731.36" y2="38.7"/><path d="M688.49,30.54v-7.8h1.21l1.46,4.86,1.47-4.86h1.23v7.8H693V23.93l-1.53,5h-.64l-1.53-5v6.61Z"/><path d="M698.13,30.68a2.5,2.5,0,0,1-2.17-1,5.1,5.1,0,0,1-.74-3,5.06,5.06,0,0,1,.74-3,2.83,2.83,0,0,1,4.35,0,5.13,5.13,0,0,1,.74,3,5.17,5.17,0,0,1-.74,3A2.52,2.52,0,0,1,698.13,30.68Zm0-.85c1.34,0,2-1.06,2-3.19s-.67-3.19-2-3.19-2,1.06-2,3.19S696.8,29.83,698.13,29.83Z"/><path d="M705.09,30.68a2.33,2.33,0,0,1-2.58-2.55V22.74h.89V28c0,1.21.57,1.82,1.71,1.82s1.7-.61,1.7-1.82V22.74h.86v5.39A2.59,2.59,0,0,1,707,30,2.62,2.62,0,0,1,705.09,30.68Z"/><path d="M712,30.68a3.82,3.82,0,0,1-2.72-1l.5-.71a3.12,3.12,0,0,0,2.24.86,2.1,2.1,0,0,0,1.36-.38,1.31,1.31,0,0,0,.46-1.09,1.18,1.18,0,0,0-.27-.84,1.77,1.77,0,0,0-.89-.44l-1.26-.28a2.55,2.55,0,0,1-1.36-.7,1.86,1.86,0,0,1-.45-1.31,2,2,0,0,1,.7-1.61,2.9,2.9,0,0,1,1.91-.58,3.82,3.82,0,0,1,2.42.81l-.46.72a3.15,3.15,0,0,0-2-.68,2,2,0,0,0-1.25.34,1.17,1.17,0,0,0-.44,1,1,1,0,0,0,.27.76,1.76,1.76,0,0,0,.89.42l1.26.29a2.54,2.54,0,0,1,1.37.7,2,2,0,0,1,.44,1.39,2.18,2.18,0,0,1-.71,1.74A3,3,0,0,1,712,30.68Z"/><path d="M718.57,30.54v-7H716v-.84h6.07v.84h-2.59v7Z"/><path d="M723.48,30.54V29.7h2V23.58h-2v-.84h5v.84h-2.05V29.7h2.05v.84Z"/><path d="M734.7,33.2a2,2,0,0,1-1.53-.58,2.35,2.35,0,0,1-.54-1.66v-.29c-1.74-.14-2.61-1.49-2.61-4a5.06,5.06,0,0,1,.74-3,2.83,2.83,0,0,1,4.35,0,5.13,5.13,0,0,1,.74,3q0,3.6-2.33,4v.22c0,1,.41,1.52,1.23,1.52a2.24,2.24,0,0,0,1.18-.33l.24.76a2.65,2.65,0,0,1-.69.29A2.88,2.88,0,0,1,734.7,33.2Zm-1.77-3.37c1.34,0,2-1.06,2-3.19s-.67-3.19-2-3.19-2,1.06-2,3.19S731.6,29.83,732.93,29.83Z"/><path d="M739.89,30.68a2.33,2.33,0,0,1-2.58-2.55V22.74h.89V28c0,1.21.57,1.82,1.71,1.82s1.7-.61,1.7-1.82V22.74h.86v5.39a2.59,2.59,0,0,1-.66,1.89A2.62,2.62,0,0,1,739.89,30.68Z"/><path d="M743.72,30.54l2.61-7.8h1l2.61,7.8h-.94l-.71-2.16h-3l-.71,2.16Zm1.87-3h2.48l-1.24-3.77Z"/><path d="M751.32,30.54V29.7h2V23.58h-2v-.84h5v.84h-2V29.7h2v.84Z"/><path d="M758.34,30.54v-7.8h2.77c1.57,0,2.35.72,2.35,2.17a1.92,1.92,0,0,1-1.85,2.15l2.08,3.48h-1l-2-3.46h-1.39v3.46Zm.89-4.3H761a1.81,1.81,0,0,0,1.19-.31,1.3,1.3,0,0,0,.36-1,1.29,1.29,0,0,0-.36-1,1.81,1.81,0,0,0-1.19-.31h-1.77Z"/><path d="M765.55,30.54v-7.8h4.82v.84h-3.93v2.57h3.36V27h-3.36V29.7h3.93v.84Z"/><line class="cls-5" x1="92.57" y1="227.7" x2="32.06" y2="176.85"/><path d="M20.21,171.83V164H25v.84H21.09v2.57h3.36v.84H21.09V171H25v.84Z"/><path d="M28.82,172a2.36,2.36,0,0,1-1.59-.48,1.6,1.6,0,0,1-.57-1.31,1.46,1.46,0,0,1,.53-1.22,2.5,2.5,0,0,1,1.58-.42h2.16v-.24a1.45,1.45,0,0,0-.36-1.11,1.86,1.86,0,0,0-1.24-.33,4.16,4.16,0,0,0-2,.49L27,166.6a4.88,4.88,0,0,1,2.35-.55,2.79,2.79,0,0,1,1.86.51,2.07,2.07,0,0,1,.58,1.61v3.66h-.65l-.11-.6A3.54,3.54,0,0,1,28.82,172Zm.12-.82a3.17,3.17,0,0,0,2-.65v-1.2H28.75c-.8,0-1.2.3-1.2.88S28,171.16,28.94,171.16Z"/><path d="M35.84,172q-2,0-2-2.13v-3.66h.86v3.53a1.59,1.59,0,0,0,.31,1.1,1.28,1.28,0,0,0,1,.34,3.12,3.12,0,0,0,1.87-.63v-4.34h.86v5.64h-.65l-.09-.6A3.47,3.47,0,0,1,35.84,172Z"/><line class="cls-5" x1="200.78" y1="105.4" x2="230.06" y2="55.8"/><line class="cls-5" x1="720.56" y1="189" x2="755.55" y2="164.03"/><path d="M747.84,160.19v-7.8h2.72a2.61,2.61,0,0,1,1.75.5,1.91,1.91,0,0,1,.56,1.5,2.09,2.09,0,0,1-.26,1.09,1.53,1.53,0,0,1-.83.62v0a1.73,1.73,0,0,1,1.31,1.9q0,2.16-2.37,2.16Zm.89-4.42h1.59a2.05,2.05,0,0,0,1.27-.31,1.47,1.47,0,0,0,0-1.93,1.76,1.76,0,0,0-1.16-.3h-1.74Zm0,3.58h1.89a1.74,1.74,0,0,0,1.18-.32,1.29,1.29,0,0,0,.38-1,1.32,1.32,0,0,0-.41-1.08,2.08,2.08,0,0,0-1.31-.34h-1.73Z"/><path d="M757.25,160.34a3,3,0,0,1-1.5-.37,2.63,2.63,0,0,1-1-1,3.24,3.24,0,0,1-.35-1.56,3.19,3.19,0,0,1,.35-1.55,2.63,2.63,0,0,1,1-1,3.25,3.25,0,0,1,3,0,2.54,2.54,0,0,1,1,1,3.2,3.2,0,0,1,.36,1.55,3.24,3.24,0,0,1-.36,1.56,2.54,2.54,0,0,1-1,1A3,3,0,0,1,757.25,160.34Zm0-.82a1.87,1.87,0,0,0,1.45-.57,2.65,2.65,0,0,0,0-3.15,2.12,2.12,0,0,0-2.89,0,2.61,2.61,0,0,0,0,3.15A1.86,1.86,0,0,0,757.25,159.52Z"/><path d="M763.78,160.19v-4.84h-2.4v-.8h3.26v4.85H767v.79Zm.31-7a.83.83,0,0,1-.58-1.42.83.83,0,0,1,1.17,1.17A.82.82,0,0,1,764.09,153.19Z"/><path d="M772.28,160.34a1.87,1.87,0,0,1-2.1-2.13v-2.86h-1.86v-.8h1.86v-1.82l.86-.48v2.3h2.4v.8H771v2.73a1.59,1.59,0,0,0,.31,1.1,1.28,1.28,0,0,0,1,.34,2.9,2.9,0,0,0,1.41-.36l.24.77A3.66,3.66,0,0,1,772.28,160.34Z"/><path d="M778.46,160.34a3.23,3.23,0,0,1-2.29-.79,2.86,2.86,0,0,1-.83-2.18,3.25,3.25,0,0,1,.36-1.57,2.52,2.52,0,0,1,1-1,3,3,0,0,1,1.52-.37,2.65,2.65,0,0,1,2,.75,2.75,2.75,0,0,1,.73,2v.24a2.11,2.11,0,0,1,0,.25h-4.68a1.88,1.88,0,0,0,.66,1.37,2.39,2.39,0,0,0,1.58.48,3.38,3.38,0,0,0,1.91-.59l.37.71A4,4,0,0,1,778.46,160.34Zm-2.2-3.43h3.8a1.87,1.87,0,0,0-.56-1.24,1.81,1.81,0,0,0-1.3-.44,1.91,1.91,0,0,0-1.31.44A2,2,0,0,0,776.26,156.91Z"/><path d="M200.28,46.43a2.8,2.8,0,0,1-2.36-1,4.72,4.72,0,0,1-.82-3,4.72,4.72,0,0,1,.82-3,2.82,2.82,0,0,1,2.36-1,3.33,3.33,0,0,1,1.12.18,3.2,3.2,0,0,1,1,.59l-.48.73a2.59,2.59,0,0,0-.77-.5,2.39,2.39,0,0,0-.86-.15c-1.51,0-2.27,1.07-2.27,3.19s.76,3.2,2.27,3.2a2.4,2.4,0,0,0,.95-.19,2.84,2.84,0,0,0,.86-.63l.52.7a3.61,3.61,0,0,1-1.1.74A3.25,3.25,0,0,1,200.28,46.43Z"/><path d="M206.73,46.43a3.09,3.09,0,0,1-1.5-.37,2.63,2.63,0,0,1-1-1,3.35,3.35,0,0,1-.35-1.56,3.31,3.31,0,0,1,.35-1.55,2.63,2.63,0,0,1,1-1,3,3,0,0,1,1.5-.37,2.94,2.94,0,0,1,1.51.37,2.63,2.63,0,0,1,1,1,3.31,3.31,0,0,1,.35,1.55,3.35,3.35,0,0,1-.35,1.56,2.63,2.63,0,0,1-1,1A3,3,0,0,1,206.73,46.43Zm0-.82a1.87,1.87,0,0,0,1.45-.57,2.65,2.65,0,0,0,0-3.15,1.87,1.87,0,0,0-1.45-.57,1.89,1.89,0,0,0-1.44.57,2.65,2.65,0,0,0,0,3.15A1.89,1.89,0,0,0,206.73,45.61Z"/><path d="M213.23,46.43c-1.35,0-2-.71-2-2.13V40.64h.86v3.53a1.59,1.59,0,0,0,.32,1.1,1.24,1.24,0,0,0,1,.34,3.1,3.1,0,0,0,1.87-.63V40.64h.87v5.64h-.65l-.1-.6A3.44,3.44,0,0,1,213.23,46.43Z"/><path d="M220.14,46.28l-2.28-5.64h.93l1.89,4.74,1.88-4.74h.89l-2.28,5.64Z"/><path d="M227.94,46.43a3.23,3.23,0,0,1-2.29-.79,2.89,2.89,0,0,1-.83-2.18,3.25,3.25,0,0,1,.36-1.57,2.48,2.48,0,0,1,1-1,2.94,2.94,0,0,1,1.51-.37,2.65,2.65,0,0,1,2,.75,2.75,2.75,0,0,1,.73,2v.24a2.11,2.11,0,0,1,0,.25h-4.68a1.88,1.88,0,0,0,.66,1.37,2.39,2.39,0,0,0,1.58.48,3.38,3.38,0,0,0,1.91-.59l.37.71A4,4,0,0,1,227.94,46.43ZM225.74,43h3.81a1.93,1.93,0,0,0-.57-1.24,1.81,1.81,0,0,0-1.29-.44,1.92,1.92,0,0,0-1.32.44A2,2,0,0,0,225.74,43Z"/><path d="M232.58,46.28V40.64h.7l.12,1a3.08,3.08,0,0,1,2.41-1.13,2.12,2.12,0,0,1,1.27.34l-.32.78a1.79,1.79,0,0,0-1-.29,2.76,2.76,0,0,0-2.29,1.28v3.67Z"/><path d="M242,46.43a3,3,0,0,1-2.2-.79,3.36,3.36,0,0,1,0-4.35,3,3,0,0,1,2.2-.79,3.85,3.85,0,0,1,2.06.59l-.33.72a3.24,3.24,0,0,0-1.73-.49,2.11,2.11,0,0,0-1.56.55,2.18,2.18,0,0,0-.55,1.59,2.15,2.15,0,0,0,.55,1.59,2.07,2.07,0,0,0,1.56.56,3.34,3.34,0,0,0,1.88-.59l.36.7A3.82,3.82,0,0,1,242,46.43Z"/><path d="M249.89,46.43a1.87,1.87,0,0,1-2.1-2.13V38.56h-2.4v-.8h3.26v6.41a1.59,1.59,0,0,0,.31,1.1,1.28,1.28,0,0,0,1,.34,2.9,2.9,0,0,0,1.41-.36l.24.77A3.66,3.66,0,0,1,249.89,46.43Z"/><path d="M255.78,46.43a3.23,3.23,0,0,1-2.29-.79,2.89,2.89,0,0,1-.83-2.18,3.25,3.25,0,0,1,.36-1.57,2.48,2.48,0,0,1,1-1,2.94,2.94,0,0,1,1.51-.37,2.65,2.65,0,0,1,2,.75,2.75,2.75,0,0,1,.73,2v.24a2.11,2.11,0,0,1,0,.25h-4.68a1.88,1.88,0,0,0,.66,1.37,2.39,2.39,0,0,0,1.58.48,3.38,3.38,0,0,0,1.91-.59l.37.71A4,4,0,0,1,255.78,46.43ZM253.58,43h3.81a1.93,1.93,0,0,0-.57-1.24,1.81,1.81,0,0,0-1.29-.44,1.92,1.92,0,0,0-1.32.44A2,2,0,0,0,253.58,43Z"/><path d="M269.69,46.43a3.39,3.39,0,0,1-2.08-.75l-.1.6h-.64V37.76h.86v3.4a3.35,3.35,0,0,1,2-.66,2.22,2.22,0,0,1,1.8.8,3.26,3.26,0,0,1,.67,2.16,3.23,3.23,0,0,1-.67,2.16A2.2,2.2,0,0,1,269.69,46.43Zm-.15-.82a1.52,1.52,0,0,0,1.27-.57,2.93,2.93,0,0,0,0-3.15,1.52,1.52,0,0,0-1.27-.57,2.93,2.93,0,0,0-.93.16,3.37,3.37,0,0,0-.88.47v3a3.08,3.08,0,0,0,.88.46A2.7,2.7,0,0,0,269.54,45.61Z"/><path d="M276.33,46.43a3.09,3.09,0,0,1-1.5-.37,2.63,2.63,0,0,1-1-1,3.35,3.35,0,0,1-.35-1.56,3.31,3.31,0,0,1,.35-1.55,2.63,2.63,0,0,1,1-1,3,3,0,0,1,1.5-.37,2.94,2.94,0,0,1,1.51.37,2.63,2.63,0,0,1,1,1,3.31,3.31,0,0,1,.35,1.55,3.35,3.35,0,0,1-.35,1.56,2.63,2.63,0,0,1-1,1A3,3,0,0,1,276.33,46.43Zm0-.82a1.87,1.87,0,0,0,1.45-.57,2.65,2.65,0,0,0,0-3.15,1.87,1.87,0,0,0-1.45-.57,1.89,1.89,0,0,0-1.44.57,2.65,2.65,0,0,0,0,3.15A1.89,1.89,0,0,0,276.33,45.61Z"/><path d="M282.86,46.28V41.44h-2.4v-.8h3.27v4.85h2.4v.79Zm.31-7a.83.83,0,0,1-.58-.25.83.83,0,0,1,0-1.17.82.82,0,0,1,.58-.24.79.79,0,0,1,.59.24.84.84,0,0,1-.59,1.42Z"/><path d="M291.36,46.43a1.87,1.87,0,0,1-2.1-2.13V41.44H287.4v-.8h1.86V38.82l.86-.48v2.3h2.4v.8h-2.4v2.73a1.64,1.64,0,0,0,.31,1.1,1.28,1.28,0,0,0,1,.34,2.9,2.9,0,0,0,1.41-.36l.24.77A3.66,3.66,0,0,1,291.36,46.43Z"/><path d="M297.54,46.43a3.23,3.23,0,0,1-2.29-.79,2.89,2.89,0,0,1-.83-2.18,3.25,3.25,0,0,1,.36-1.57,2.48,2.48,0,0,1,1-1,2.94,2.94,0,0,1,1.51-.37,2.65,2.65,0,0,1,2,.75,2.75,2.75,0,0,1,.73,2v.24a2.11,2.11,0,0,1,0,.25h-4.68a1.88,1.88,0,0,0,.66,1.37,2.39,2.39,0,0,0,1.58.48,3.38,3.38,0,0,0,1.91-.59l.37.71A4,4,0,0,1,297.54,46.43ZM295.34,43h3.81a1.93,1.93,0,0,0-.57-1.24,1.81,1.81,0,0,0-1.29-.44,1.92,1.92,0,0,0-1.32.44A2,2,0,0,0,295.34,43Z"/></svg>