<svg id="Calque_2" data-name="Calque 2" xmlns="http://www.w3.org/2000/svg" viewBox="0 0 813.6 230.4"><defs><style>.cls-1{fill:#fff;stroke:#000;stroke-width:1.08px;}.cls-1,.cls-3,.cls-4,.cls-5,.cls-6{stroke-miterlimit:10;}.cls-2{fill:#ecffd2;}.cls-3,.cls-4{fill:#00c807;}.cls-3,.cls-4,.cls-5,.cls-6{stroke:#007e07;}.cls-4{stroke-width:0.93px;}.cls-5{stroke-width:0.61px;}</style></defs><rect class="cls-1" x="101.7" y="90" width="638.1" height="126.9"/><rect class="cls-2" x="101.7" y="198.15" width="638.1" height="18.75"/><ellipse class="cls-3" cx="328.32" cy="192.78" rx="10.8" ry="4.05"/><ellipse class="cls-3" cx="437.22" cy="192.07" rx="10.8" ry="4.05"/><ellipse class="cls-3" cx="454.62" cy="192.78" rx="10.8" ry="4.05"/><ellipse class="cls-3" cx="476.22" cy="192.78" rx="10.8" ry="4.05"/><ellipse class="cls-3" cx="496.62" cy="192.78" rx="10.8" ry="4.05"/><ellipse class="cls-3" cx="666.6" cy="192.89" rx="10.8" ry="4.05"/><ellipse class="cls-3" cx="684" cy="193.61" rx="10.8" ry="4.05"/><ellipse class="cls-3" cx="705.6" cy="193.61" rx="10.8" ry="4.05"/><ellipse class="cls-3" cx="726" cy="193.61" rx="10.8" ry="4.05"/><ellipse class="cls-3" cx="611.61" cy="192.43" rx="10.8" ry="4.05" transform="translate(-17.27 67.52) rotate(-6.23)"/><ellipse class="cls-3" cx="628.99" cy="191.25" rx="10.8" ry="4.05" transform="translate(-17.04 69.4) rotate(-6.23)"/><ellipse class="cls-3" cx="650.46" cy="188.9" rx="10.8" ry="4.05" transform="translate(-16.66 71.72) rotate(-6.23)"/><ellipse class="cls-3" cx="648.69" cy="192.89" rx="10.8" ry="4.05" transform="translate(-17.1 71.55) rotate(-6.23)"/><ellipse class="cls-3" cx="343.92" cy="192.78" rx="4.05" ry="10.8" transform="translate(71.15 477.46) rotate(-75.5)"/><ellipse class="cls-3" cx="370.02" cy="192.07" rx="4.05" ry="10.8" transform="translate(91.4 502.19) rotate(-75.5)"/><ellipse class="cls-3" cx="359.51" cy="192.07" rx="4.05" ry="10.8" transform="translate(83.53 492.02) rotate(-75.5)"/><ellipse class="cls-3" cx="121.92" cy="192.43" rx="10.8" ry="4.05"/><ellipse class="cls-3" cx="137.52" cy="192.43" rx="4.05" ry="10.8" transform="translate(-83.21 277.37) rotate(-75.5)"/><ellipse class="cls-3" cx="163.62" cy="191.71" rx="4.05" ry="10.8" transform="translate(-62.96 302.1) rotate(-75.5)"/><ellipse class="cls-3" cx="153.11" cy="191.71" rx="4.05" ry="10.8" transform="translate(-70.83 291.93) rotate(-75.5)"/><ellipse class="cls-3" cx="178.32" cy="193.96" rx="10.8" ry="4.05"/><ellipse class="cls-3" cx="193.92" cy="193.96" rx="4.05" ry="10.8" transform="translate(-42.43 333.13) rotate(-75.5)"/><ellipse class="cls-3" cx="220.02" cy="193.25" rx="4.05" ry="10.8" transform="translate(-22.17 357.86) rotate(-75.5)"/><ellipse class="cls-3" cx="209.51" cy="193.25" rx="4.05" ry="10.8" transform="translate(-30.05 347.69) rotate(-75.5)"/><line class="cls-4" x1="127.02" y1="190.48" x2="77.4" y2="110.24"/><path d="M55.52,106.38a2.52,2.52,0,0,1-2.18-1,6.53,6.53,0,0,1,0-6,2.83,2.83,0,0,1,4.35,0,6.53,6.53,0,0,1,0,6A2.5,2.5,0,0,1,55.52,106.38Zm0-.85c1.33,0,2-1.06,2-3.19s-.67-3.19-2-3.19-2,1.06-2,3.19S54.18,105.53,55.52,105.53Z"/><path d="M60.29,106.24v-7.8h4.83v.84H61.18v2.57h3.36v.84H61.18v2.71h3.94v.84Z"/><path d="M69.44,106.38a2.61,2.61,0,0,1-1.91-.66,2.52,2.52,0,0,1-.67-1.89V98.44h.88v5.27c0,1.22.57,1.82,1.71,1.82s1.7-.6,1.7-1.82V98.44H72v5.39a2.56,2.56,0,0,1-.67,1.89A2.59,2.59,0,0,1,69.44,106.38Z"/><path d="M74.26,106.24v-7.8h4.82v.84H75.15v2.62h3.36v.84H75.15v3.5Z"/><path d="M83.25,106.38a3.78,3.78,0,0,1-2.71-1l.49-.71a3.09,3.09,0,0,0,2.24.86,2.14,2.14,0,0,0,1.36-.37,1.35,1.35,0,0,0,.47-1.1,1.18,1.18,0,0,0-.28-.84,1.72,1.72,0,0,0-.89-.43l-1.26-.29a2.55,2.55,0,0,1-1.36-.7,1.86,1.86,0,0,1-.45-1.31,2,2,0,0,1,.7-1.61,2.91,2.91,0,0,1,1.92-.58,3.79,3.79,0,0,1,2.41.81l-.46.72a3.11,3.11,0,0,0-2-.68,2,2,0,0,0-1.25.34,1.17,1.17,0,0,0-.44,1,1,1,0,0,0,.28.77,1.9,1.9,0,0,0,.88.42l1.26.28a2.51,2.51,0,0,1,1.37.7A2,2,0,0,1,86,104a2.16,2.16,0,0,1-.72,1.74A3,3,0,0,1,83.25,106.38Z"/><rect x="96.08" y="82" width="650.63" height="6"/><rect x="97.57" y="87.97" width="2.41" height="9"/><rect x="741.52" y="85.5" width="2.41" height="9"/><line class="cls-5" x1="111.81" y1="204.3" x2="72.02" y2="175.5"/><line class="cls-6" x1="220.02" y1="82" x2="249.3" y2="32.4"/><line class="cls-6" x1="739.8" y1="165.6" x2="774.79" y2="140.63"/><path d="M767.08,136.79V129h2.71a2.62,2.62,0,0,1,1.76.5,1.91,1.91,0,0,1,.56,1.5,2.09,2.09,0,0,1-.26,1.09,1.57,1.57,0,0,1-.83.62v0a1.73,1.73,0,0,1,1.31,1.9q0,2.16-2.37,2.16Zm.89-4.42h1.58a2.09,2.09,0,0,0,1.28-.31,1.2,1.2,0,0,0,.38-1,1.16,1.16,0,0,0-.34-.94,1.77,1.77,0,0,0-1.16-.3H768Zm0,3.58h1.88a1.76,1.76,0,0,0,1.19-.32,1.29,1.29,0,0,0,.37-1,1.31,1.31,0,0,0-.4-1.08,2.1,2.1,0,0,0-1.31-.34H768Z"/><path d="M776.49,136.94a3,3,0,0,1-1.5-.37,2.57,2.57,0,0,1-1-1,3.24,3.24,0,0,1-.36-1.56,3.2,3.2,0,0,1,.36-1.55,2.57,2.57,0,0,1,1-1,3.25,3.25,0,0,1,3,0,2.61,2.61,0,0,1,1,1,3.2,3.2,0,0,1,.36,1.55,3.24,3.24,0,0,1-.36,1.56,2.61,2.61,0,0,1-1,1A3,3,0,0,1,776.49,136.94Zm0-.82a1.87,1.87,0,0,0,1.45-.57,2.65,2.65,0,0,0,0-3.15,2.12,2.12,0,0,0-2.89,0,2.61,2.61,0,0,0,0,3.15A1.86,1.86,0,0,0,776.49,136.12Z"/><path d="M783,136.79V132h-2.4v-.8h3.26V136h2.4v.79Zm.31-7a.81.81,0,0,1-.58-.25.81.81,0,0,1,0-1.17.83.83,0,0,1,1.17,1.17A.82.82,0,0,1,783.33,129.79Z"/><path d="M791.51,136.94a1.87,1.87,0,0,1-2.1-2.13V132h-1.86v-.8h1.86v-1.82l.87-.48v2.3h2.4v.8h-2.4v2.73a1.59,1.59,0,0,0,.31,1.1,1.27,1.27,0,0,0,1,.34,2.91,2.91,0,0,0,1.42-.36l.24.77A3.67,3.67,0,0,1,791.51,136.94Z"/><path d="M797.69,136.94a3.21,3.21,0,0,1-2.28-.79,2.86,2.86,0,0,1-.84-2.18,3.25,3.25,0,0,1,.36-1.57,2.54,2.54,0,0,1,1-1,3,3,0,0,1,1.51-.37,2.68,2.68,0,0,1,2,.75,2.79,2.79,0,0,1,.73,2V134a1.07,1.07,0,0,1,0,.25h-4.68a2,2,0,0,0,.66,1.37,2.43,2.43,0,0,0,1.59.48,3.38,3.38,0,0,0,1.91-.59l.37.71A4.05,4.05,0,0,1,797.69,136.94Zm-2.19-3.43h3.8a1.87,1.87,0,0,0-.56-1.24,1.81,1.81,0,0,0-1.3-.44,1.91,1.91,0,0,0-1.31.44A2,2,0,0,0,795.5,133.51Z"/><path d="M219.52,23A2.82,2.82,0,0,1,217.15,22a4.79,4.79,0,0,1-.81-3,4.79,4.79,0,0,1,.81-3,2.84,2.84,0,0,1,2.37-1,3.37,3.37,0,0,1,1.12.18,3.2,3.2,0,0,1,1,.59l-.48.73a2.63,2.63,0,0,0-.78-.5,2.34,2.34,0,0,0-.85-.15c-1.52,0-2.27,1.07-2.27,3.19s.75,3.2,2.27,3.2a2.35,2.35,0,0,0,.94-.19,2.87,2.87,0,0,0,.87-.63l.51.7a3.57,3.57,0,0,1-1.09.74A3.32,3.32,0,0,1,219.52,23Z"/><path d="M226,23a3,3,0,0,1-1.5-.37,2.63,2.63,0,0,1-1-1,3.24,3.24,0,0,1-.35-1.56,3.19,3.19,0,0,1,.35-1.55,2.63,2.63,0,0,1,1-1,3.25,3.25,0,0,1,3,0,2.54,2.54,0,0,1,1,1,3.2,3.2,0,0,1,.36,1.55,3.24,3.24,0,0,1-.36,1.56,2.54,2.54,0,0,1-1,1A3,3,0,0,1,226,23Zm0-.82a1.87,1.87,0,0,0,1.45-.57,2.26,2.26,0,0,0,.52-1.58,2.26,2.26,0,0,0-.52-1.57,2.12,2.12,0,0,0-2.89,0,2.26,2.26,0,0,0-.53,1.57,2.27,2.27,0,0,0,.53,1.58A1.86,1.86,0,0,0,226,22.21Z"/><path d="M232.46,23q-2,0-2-2.13V17.24h.86v3.53a1.64,1.64,0,0,0,.31,1.1,1.28,1.28,0,0,0,1,.34,3.12,3.12,0,0,0,1.87-.63V17.24h.86v5.64h-.64l-.1-.6A3.47,3.47,0,0,1,232.46,23Z"/><path d="M239.38,22.88l-2.28-5.64H238L239.92,22l1.88-4.74h.89l-2.28,5.64Z"/><path d="M247.18,23a3.23,3.23,0,0,1-2.29-.79,2.86,2.86,0,0,1-.83-2.18,3.25,3.25,0,0,1,.36-1.57,2.52,2.52,0,0,1,1-1,3,3,0,0,1,1.52-.37,2.65,2.65,0,0,1,2,.75,2.75,2.75,0,0,1,.73,2v.24a2.11,2.11,0,0,1,0,.25H245a1.88,1.88,0,0,0,.66,1.37,2.39,2.39,0,0,0,1.58.48,3.38,3.38,0,0,0,1.91-.59l.37.71A4,4,0,0,1,247.18,23ZM245,19.6h3.8a1.87,1.87,0,0,0-.56-1.24,1.81,1.81,0,0,0-1.3-.44,1.91,1.91,0,0,0-1.31.44A2,2,0,0,0,245,19.6Z"/><path d="M251.82,22.88V17.24h.7l.12,1a3.08,3.08,0,0,1,2.41-1.13,2.12,2.12,0,0,1,1.27.34l-.32.78a1.79,1.79,0,0,0-1-.29,2.79,2.79,0,0,0-2.3,1.28v3.67Z"/><path d="M261.23,23a3,3,0,0,1-2.2-.79,3,3,0,0,1-.8-2.18,2.93,2.93,0,0,1,.8-2.17,3,3,0,0,1,2.2-.79,3.85,3.85,0,0,1,2.06.59l-.33.72a3.26,3.26,0,0,0-1.73-.49,2.11,2.11,0,0,0-1.56.55,2.18,2.18,0,0,0-.55,1.59,2.15,2.15,0,0,0,.55,1.59,2.07,2.07,0,0,0,1.56.56,3.36,3.36,0,0,0,1.88-.59l.36.7A3.82,3.82,0,0,1,261.23,23Z"/><path d="M269.12,23A1.87,1.87,0,0,1,267,20.9V15.16h-2.4v-.8h3.27v6.41a1.59,1.59,0,0,0,.31,1.1,1.27,1.27,0,0,0,1,.34,2.91,2.91,0,0,0,1.42-.36l.24.77A3.67,3.67,0,0,1,269.12,23Z"/><path d="M275,23a3.23,3.23,0,0,1-2.29-.79,2.86,2.86,0,0,1-.83-2.18,3.25,3.25,0,0,1,.36-1.57,2.52,2.52,0,0,1,1-1,3,3,0,0,1,1.52-.37,2.65,2.65,0,0,1,2,.75,2.75,2.75,0,0,1,.73,2v.24a2.11,2.11,0,0,1,0,.25H272.8a1.88,1.88,0,0,0,.66,1.37,2.39,2.39,0,0,0,1.58.48,3.38,3.38,0,0,0,1.91-.59l.37.71A4,4,0,0,1,275,23Zm-2.2-3.43h3.8a1.87,1.87,0,0,0-.56-1.24,1.81,1.81,0,0,0-1.3-.44,1.91,1.91,0,0,0-1.31.44A2,2,0,0,0,272.82,19.6Z"/><path d="M288.92,23a3.36,3.36,0,0,1-2.07-.75l-.1.6h-.65V14.36H287v3.4a3.32,3.32,0,0,1,1.95-.66,2.24,2.24,0,0,1,1.81.8,3.32,3.32,0,0,1,.67,2.16,3.28,3.28,0,0,1-.67,2.16A2.22,2.22,0,0,1,288.92,23Zm-.14-.82a1.53,1.53,0,0,0,1.27-.57,2.46,2.46,0,0,0,.46-1.58,2.45,2.45,0,0,0-.46-1.57,1.53,1.53,0,0,0-1.27-.57,2.84,2.84,0,0,0-.93.16,3.37,3.37,0,0,0-.88.47v3a3.08,3.08,0,0,0,.88.46A2.62,2.62,0,0,0,288.78,22.21Z"/><path d="M295.57,23a3,3,0,0,1-1.5-.37,2.63,2.63,0,0,1-1-1,3.24,3.24,0,0,1-.35-1.56,3.19,3.19,0,0,1,.35-1.55,2.63,2.63,0,0,1,1-1,3.25,3.25,0,0,1,3,0,2.54,2.54,0,0,1,1,1,3.2,3.2,0,0,1,.36,1.55,3.24,3.24,0,0,1-.36,1.56,2.54,2.54,0,0,1-1,1A3,3,0,0,1,295.57,23Zm0-.82a1.87,1.87,0,0,0,1.45-.57,2.26,2.26,0,0,0,.52-1.58,2.26,2.26,0,0,0-.52-1.57,2.12,2.12,0,0,0-2.89,0,2.26,2.26,0,0,0-.53,1.57,2.27,2.27,0,0,0,.53,1.58A1.86,1.86,0,0,0,295.57,22.21Z"/><path d="M302.1,22.88V18h-2.4v-.8H303v4.85h2.4v.79Zm.31-7a.83.83,0,0,1-.58-1.42A.83.83,0,0,1,303,15.63.82.82,0,0,1,302.41,15.88Z"/><path d="M310.6,23a1.87,1.87,0,0,1-2.1-2.13V18h-1.86v-.8h1.86V15.42l.86-.48v2.3h2.4V18h-2.4v2.73a1.59,1.59,0,0,0,.31,1.1,1.28,1.28,0,0,0,1,.34,2.9,2.9,0,0,0,1.41-.36l.24.77A3.66,3.66,0,0,1,310.6,23Z"/><path d="M316.78,23a3.23,3.23,0,0,1-2.29-.79,2.86,2.86,0,0,1-.83-2.18,3.25,3.25,0,0,1,.36-1.57,2.52,2.52,0,0,1,1-1,3,3,0,0,1,1.52-.37,2.65,2.65,0,0,1,2,.75,2.75,2.75,0,0,1,.73,2v.24a2.11,2.11,0,0,1,0,.25h-4.68a1.88,1.88,0,0,0,.66,1.37,2.39,2.39,0,0,0,1.58.48,3.38,3.38,0,0,0,1.91-.59l.37.71A4,4,0,0,1,316.78,23Zm-2.2-3.43h3.8a1.87,1.87,0,0,0-.56-1.24,1.81,1.81,0,0,0-1.3-.44,1.91,1.91,0,0,0-1.31.44A2,2,0,0,0,314.58,19.6Z"/><path d="M15.7,171.28l-2.49-7.8h.94l2.1,6.71,2.1-6.71h.89l-2.49,7.8Z"/><path d="M23.51,171.42a3.19,3.19,0,0,1-2.29-.79,2.87,2.87,0,0,1-.83-2.17,3.22,3.22,0,0,1,.36-1.57,2.51,2.51,0,0,1,1-1,3,3,0,0,1,1.51-.37,2.65,2.65,0,0,1,2,.75,2.78,2.78,0,0,1,.73,2v.24a2.29,2.29,0,0,1,0,.25H21.29a1.9,1.9,0,0,0,.66,1.37,2.39,2.39,0,0,0,1.58.48,3.46,3.46,0,0,0,1.91-.59l.37.71A4.06,4.06,0,0,1,23.51,171.42ZM21.31,168h3.81a1.93,1.93,0,0,0-.57-1.24,1.85,1.85,0,0,0-1.29-.44,1.83,1.83,0,0,0-2,1.68Z"/><path d="M28.15,171.28v-5.64h.7l.12,1a3.08,3.08,0,0,1,2.41-1.13,2.2,2.2,0,0,1,1.27.34l-.32.78a1.87,1.87,0,0,0-1-.29A2.74,2.74,0,0,0,29,167.61v3.67Z"/><path d="M34.27,171.28v-5.64h.59l.08.47a2,2,0,0,1,1.37-.62,1.09,1.09,0,0,1,1.07.62,1.94,1.94,0,0,1,1.37-.62,1.15,1.15,0,0,1,.89.36,1.37,1.37,0,0,1,.33,1v4.45h-.83v-4.36q0-.66-.6-.66a1.37,1.37,0,0,0-1,.46v4.56h-.83v-4.36q0-.66-.6-.66a1.38,1.38,0,0,0-1,.46v4.56Z"/><path d="M43.63,171.28v-4.85h-2.4v-.79H44.5v4.85h2.4v.79Zm.31-7a.84.84,0,0,1-.82-.83.81.81,0,0,1,.24-.59.82.82,0,0,1,.58-.24.79.79,0,0,1,.59.24.81.81,0,0,1,.24.59.78.78,0,0,1-.24.58A.76.76,0,0,1,43.94,164.27Z"/><path d="M51.48,171.42a3,3,0,0,1-2.2-.79,3.34,3.34,0,0,1,0-4.34,3,3,0,0,1,2.2-.8,3.85,3.85,0,0,1,2.06.59l-.33.72a3.24,3.24,0,0,0-1.73-.49,2.11,2.11,0,0,0-1.56.56,2.57,2.57,0,0,0,0,3.18,2.11,2.11,0,0,0,1.56.56,3.41,3.41,0,0,0,1.88-.59l.36.69A3.75,3.75,0,0,1,51.48,171.42Z"/><path d="M57.52,171.42c-1.35,0-2-.71-2-2.12v-3.66h.86v3.53a1.56,1.56,0,0,0,.32,1.09,1.24,1.24,0,0,0,1,.35,3.11,3.11,0,0,0,1.87-.64v-4.33h.87v5.64h-.65l-.1-.6A3.49,3.49,0,0,1,57.52,171.42Z"/><path d="M66.34,171.42a1.87,1.87,0,0,1-2.1-2.12v-5.75h-2.4v-.79H65.1v6.41a1.56,1.56,0,0,0,.31,1.09,1.28,1.28,0,0,0,1,.35,2.9,2.9,0,0,0,1.41-.36l.24.76A3.54,3.54,0,0,1,66.34,171.42Z"/><path d="M71.47,171.28v-4.85h-2.4v-.79h3.27v4.85h2.4v.79Zm.31-7a.84.84,0,0,1-.82-.83.81.81,0,0,1,.24-.59.82.82,0,0,1,.58-.24.79.79,0,0,1,.59.24.81.81,0,0,1,.24.59.78.78,0,0,1-.24.58A.76.76,0,0,1,71.78,164.27Z"/><path d="M80,171.42a1.87,1.87,0,0,1-2.1-2.12v-2.87H76v-.79h1.86v-1.83l.86-.48v2.31h2.4v.79h-2.4v2.74a1.61,1.61,0,0,0,.31,1.09,1.28,1.28,0,0,0,1,.35,2.9,2.9,0,0,0,1.41-.36l.24.76A3.54,3.54,0,0,1,80,171.42Z"/><path d="M86.15,171.42a3.19,3.19,0,0,1-2.29-.79,2.87,2.87,0,0,1-.83-2.17,3.22,3.22,0,0,1,.36-1.57,2.51,2.51,0,0,1,1-1,3,3,0,0,1,1.51-.37,2.65,2.65,0,0,1,2,.75,2.78,2.78,0,0,1,.73,2v.24a2.29,2.29,0,0,1,0,.25H83.93a1.9,1.9,0,0,0,.66,1.37,2.39,2.39,0,0,0,1.58.48,3.46,3.46,0,0,0,1.91-.59l.37.71A4.06,4.06,0,0,1,86.15,171.42ZM84,168h3.81a1.93,1.93,0,0,0-.57-1.24,1.85,1.85,0,0,0-1.29-.44A1.83,1.83,0,0,0,84,168Z"/></svg>