<svg id="Calque_1" data-name="Calque 1" xmlns="http://www.w3.org/2000/svg" viewBox="0 0 233.28 52.15"><defs><style>.cls-1{fill:#fff;stroke:#06b131;stroke-miterlimit:10;}.cls-2{fill:#06b131;}</style></defs><rect class="cls-1" x="20.05" y="8.55" width="0.55" height="9.36" transform="translate(-3.07 6.86) rotate(-17.83)"/><rect class="cls-1" x="24.32" y="8.47" width="0.56" height="9.36" transform="translate(6.35 -7.94) rotate(21.01)"/><polygon class="cls-1" points="21.01 24.29 21.5 23.6 10.64 8.51 10.15 9.19 21.01 24.29"/><polygon class="cls-1" points="21.3 38.3 21.01 37.42 7.01 46.19 7.29 47.07 21.3 38.3"/><polygon class="cls-1" points="21.05 30.22 20.84 29.3 6.22 35.84 6.43 36.75 21.05 30.22"/><polygon class="cls-1" points="23.15 24.29 22.66 23.6 33.52 8.51 34.01 9.19 23.15 24.29"/><polygon class="cls-1" points="22.86 38.3 23.15 37.42 37.15 46.19 36.87 47.07 22.86 38.3"/><polygon class="cls-1" points="23.11 30.22 23.32 29.3 37.94 35.84 37.73 36.75 23.11 30.22"/><rect class="cls-1" x="21.21" y="17.26" width="2.34" height="24.07"/><path class="cls-2" d="M44.92,39.42V17.74h8.67q6,0,6,6.82,0,3.72-1.57,5.33a6,6,0,0,1-4.5,1.6H48v7.93ZM48,29.2h5.66q2.66,0,2.92-3.09a13.11,13.11,0,0,0,.06-1.35,7,7,0,0,0-.71-3.68,2.48,2.48,0,0,0-2.2-1H48Z"/><path class="cls-2" d="M64.72,39.42V17.74h3v9.58H78.26V17.74h3V39.42h-3V29.54H67.73v9.88Z"/><path class="cls-2" d="M85.74,39.42l8.09-21.68h2.65l8.1,21.68h-3.07L100,35.2H90.36l-1.48,4.22Zm5.34-6.37h8.27L95.24,21.19Z"/><path class="cls-2" d="M123.33,33.34q0,6.42-7.1,6.41a16.06,16.06,0,0,1-8.2-2l1.06-2.31a14.33,14.33,0,0,0,3.28,1.35,13.48,13.48,0,0,0,3.75.56,6.36,6.36,0,0,0,2.75-.47c1.11-.56,1.67-1.7,1.67-3.42a6,6,0,0,0-.11-1.42c-.23-.8-1.07-1.43-2.53-1.89l-5.24-1.74a6.32,6.32,0,0,1-3.38-2.09,5.79,5.79,0,0,1-.85-3.25,5.08,5.08,0,0,1,2.09-4.35,9,9,0,0,1,5.19-1.29c3.23,0,5.65.51,7.27,1.51l-.73,2.36a12.49,12.49,0,0,0-6-1.44,8.24,8.24,0,0,0-3.54.6,2.18,2.18,0,0,0-1.3,1.93q0,.42,0,.75a2.63,2.63,0,0,0,.46,1.67,3.75,3.75,0,0,0,1.77,1l5.46,1.85a7,7,0,0,1,3.26,2A5.66,5.66,0,0,1,123.33,33.34Z"/><path class="cls-2" d="M128.69,39.42V17.74h2.78l7.3,12.12,7.38-12.12h2.67V39.42H146V22.61l-6.07,10h-2.24l-6.09-9.89V39.42Z"/><path class="cls-2" d="M154.94,39.42V37.18h4.14V20h-4.14V17.74h11.28V20h-4.13V37.18h4.13v2.24Z"/><path class="cls-2" d="M172.33,39.42V17.74h8.61q6.23,0,7.77,4.41a8.72,8.72,0,0,1,.45,2.89V32.2a6.86,6.86,0,0,1-2,5.39q-2,1.83-6.14,1.83Zm3-2.24h5.31c2.18,0,3.64-.41,4.37-1.22a4.94,4.94,0,0,0,1.1-3.46V24.86q0-3.32-2.21-4.3a8,8,0,0,0-3.26-.56h-5.31Z"/><path class="cls-2" d="M193.12,39.42l8.08-21.68h2.66L212,39.42h-3.07l-1.47-4.22h-9.67l-1.49,4.22Zm5.34-6.37h8.26l-4.11-11.86Z"/><path class="cls-2" d="M216.51,39.42V17.74h13.54V20H219.53v7.14h9.29v2.25h-9.29v7.8h10.7v2.24ZM222.59,15l1.8-5.12h3.37L224.18,15Z"/></svg>