<svg id="Calque_2" data-name="Calque 2" xmlns="http://www.w3.org/2000/svg" viewBox="0 0 813.6 427.79">
  <defs>
    <style>
      .cls-1,.cls-2{fill:#06a32c}.cls-1,.cls-2,.cls-3,.cls-4,.cls-5,.cls-6{stroke:#000;stroke-miterlimit:10}.cls-2{stroke-width:.5px}.cls-3{fill:#06b131}.cls-4{fill:#07cf3a}.cls-5{fill:#04942a}.cls-6{fill:#059e2d}
    </style>
  </defs>
  <path class="cls-1" d="M357.6 105.14c-18-24.75-31.05-33.3-70.2-24.3s-38.7-1.35-73.8 16-118.8 16.87-109.8 71.1-9.45 25.2-16.65 33.52S27.3 235.19 20.78 250s72.45 36.9 100.8 70.88c2.62 14.17-14 28.12 68.85 58.5 79.27 3.67 126-3.15 138.6-11s36.67 12.83 59.4-34 35.77-99.78 35.77-99.78l-38.4-83.45s-24.6-24.6-26.4-25.8-1.8-20.21-1.8-20.21z"/>
  <ellipse class="cls-2" cx="679.58" cy="188.43" rx="5.92" ry="1.58"/>
  <ellipse class="cls-2" cx="678" cy="168.71" rx="6.6" ry="1.95"/>
  <ellipse class="cls-2" cx="678.9" cy="172.76" rx="4.35" ry=".75"/>
  <ellipse class="cls-2" cx="680.78" cy="184.38" rx="3.83" ry=".68"/>
  <ellipse class="cls-3" cx="641.55" cy="178.38" rx="38.02" ry="27.56"/>
  <circle class="cls-4" cx="656.51" cy="159.48" r="5.51"/>
  <circle class="cls-4" cx="655.61" cy="198.98" r="4.61"/>
  <path class="cls-5" d="M397.54 339c-1.24 4.74-.9 9 9.9 9.69s29.66-.49 32.66 6.11-2.4 42.9 0 46.8 12.3 9.6 12.3 5.7.3-5.4-4.2-9.3-1.5-33-3.3-39.6 7.5-12.74-34.2-16.72z"/>
  <path class="cls-6" d="M505 247.8s-23.82 19.79-28.32 25.79-27.3 43.5-30.9 58.2c-2.85 11.66-30 12.51-47.17 8.19a35.28 35.28 0 01-10.81-4.33c-12.22-8.36 16-33.86 20.78-38.06s29.74-22.14 41.7-26.7S492.7 253.12 505 247.8z"/>
  <path class="cls-5" d="M400.24 75.5c-1.24-12.6 4.39-14 2.81-23.68s-3.37-12.38-7.42-17.33 13.5-11.92 14.62-4.72-4.27 8.1-3.82 19.35 6.19 9.73 2 16.65c0 0 2.35 6.72 6.47 7.71s-14.66 2.02-14.66 2.02z"/>
  <path class="cls-6" d="M450.59 132.3c-3.89-10.18-11.31-12.66-22.56-19.18s-36.23-33.53-26.1-38.7S449.85 87 457.28 90.17c0 0-4.5 13.27 3.6 23.85s3.92 17.36 3.92 17.36z"/>
  <path class="cls-5" d="M587.78 87.59c-7.43 0-11.44.23-13.94 0s-6.31-5.39-9-10.23S524.13 41.41 513 47.17s20.1 18.15 20.1 18.15a107.35 107.35 0 0134.2 27.22s23.85 1.42 22.28-1a10.83 10.83 0 01-1.8-3.95z"/>
  <path class="cls-6" d="M521.25 132.11c-10.75-13-57-51.72-14-86.37 0 0 57 7.53 25.79 85.56-.04 0-1.59 13.14-11.79.81z"/>
  <path class="cls-5" d="M512.06 348.7c5.44 10.39 33 9.49 56.14 4.09 0 0 10.5-2.4 43.8 18.9 0 0 6.6-2.4 5.1-6.6s-18.9 1.36-37.8-22.72c0 0-8.1-3.07-49.8 7.43 0 0-8.4-.14-11.4-4.28s-6.04 3.18-6.04 3.18z"/>
  <path class="cls-6" d="M526.08 232.09c4 7.6 6.72 5.5 2.22 14.2s-28.5 37.8-28.8 41.4-6.05 16.2 5.52 50.7 44.88-19.8 46.08-24.9 5.68-56.32-5.1-71.7c0 0 .21-11.61-3.64-17.65s-16.28 7.95-16.28 7.95z"/>
  <path class="cls-6" d="M583.28 189.13c7.42 17.56 10.12 22.06 6.22 27.76s-35.4 35.1-42.6 43.8 36.3 55.5 131.1 75a6.83 6.83 0 016.9-3c4.5.9 10.2 12.3 61.5 7.8 0 0 6.3-4.8 0-9.9s-10.2-12-10.5-13.5-4.2-7.2-14.7-1.8S701.7 327 697.5 324s8.7-5.1 8.1-8.1 3.6-10.8-9-15.3-1.8-13.16 2.7-14.38-4.2-4.82-8.7-7.22 1.5-7.8 7.5-8.4 0-14.1-10.8-18-10-10.2-30.79-12.6-39-21.69-53-42.64-20.23-8.23-20.23-8.23z"/>
  <path class="cls-5" d="M745.7 340.55c3.85 2.34 8.5 7.14 8.2 14s-3.45 22.35-2.85 24.3 5.85 7.05 7.5 5.1-1.65-.3-1.5-6.6 1.68-8.55 2-10.8-2.46-25.9-9.82-33.15-3.53 7.15-3.53 7.15zM738.9 101.89c3.9 14.5 2.1 34-1.5 39.1s11.4 15.3 39.9 5.7c0 0 4.2 2.1-11.7 11.1s-46.44-22.16-46.8-26.49-12-15.51-12-15.51 3.3-14.7 5.1-16.5 11.7-7 13.8-6.33 9.3-1.23 11.4 0 1.8 8.93 1.8 8.93z"/>
  <path class="cls-6" d="M603.53 135.82C592.8 112.79 591 96 584.1 77.09s37.95-27 76.13-25.2 64 .9 69.07 6.9 4.5 8.7 6.6 9.6 9.3 3.08 8.7 4.09-2.33 7.31 0 9.11 4.76 10.59-5.74 20.3-12.3-8-12 12.4c0 0-18.3 8.4-6.9 13.5s-13.56 22.66-72.33 8c0 0-32.67 11.47-35.67 16.87s-8.43-16.84-8.43-16.84z"/>
  <path class="cls-1" d="M566.4 160.94c4.52-.9 32-17.77 38.48-26.77 7.87-.68 6.52 19.35 14.4 19.35s-13.95 13.72-4.5 40c-3.6 13.27-35.55-7.88-40.94-8.55-9.67-4.45-7.44-24.03-7.44-24.03z"/>
  <path class="cls-3" d="M219.9 104.92c7.39-2.8 66.6-9.08 80.1-9.68s8.55-2.7 56.93 4.05c19.85 11.42 90 38.93 105.75 30.6 23.77 5.29 58.61 18.45 58.57 2.22 2.25-5 13.76-1.88 12 .56 13.11 17.77 28.32 21.32 40.55 25.12-13.55 17.4 0 21.15 3.36 27-7.8 21-21 28.8-25.8 34.8s-18.6 3.6-27.6 15-49.2 27.6-62.4 31.8-67.2 43.8-67.2 43.8c-71.65 47.06-162.45 41.38-221.4 16.2-99-31.5-93.3-79.43-48-99-64.2-12.6-37.8-50.4-18.6-63.6 32.97-24 100.61-53.9 113.74-58.87z"/>
</svg>
