<svg id="Calque_2" data-name="Calque 2" xmlns="http://www.w3.org/2000/svg" viewBox="0 0 813.6 213.89">
  <defs>
    <style>
      .cls-1{fill:#06b131;stroke:#000;stroke-miterlimit:10;stroke-width:1.08px}
    </style>
  </defs>
  <path class="cls-1" d="M21.12 132.45c4.48-4.7 16.4-11 33.54-9.39s2.61-10.18 43.6-13.31 40.25-12.52 46.21-15.65 141.6-9.39 150.54-11 14.91 7.9 46.21 7.9 210.92-23.48 216.13-25v40s-70.05-.94-93.9 11.58-90.93-1.58-105.83 17.21-34.28 6.26-40.25 6.26-8.2 6.27-11.18 9.4-185.72 4.69-194.59 0-1.42-6.26-15.58-4.7-52.91 1.57-61.85 3.13-13.05-16.43-13.05-16.43z"/>
  <path class="cls-1" d="M337.5 128.53c-6 15.66-35.78 4.7-69.32 1.57-28 23.31-66 49.15-75.55 60.65h-5.46L262.22 116h42.61l23.72 12.52zM557.35 65.93c9.69-7.83 29.81-6.26 35 21.91s-35 18.16-35 18.16z"/>
  <path class="cls-1" d="M575.1 62.84c-2.1-1.61 30.7-14.13 46.35-7.84 0 0-30.87 2.71-38.17 13.1 0-.03-5.34-5.22-8.18-5.26z"/>
  <ellipse class="cls-1" cx="577.1" cy="75.32" rx="2.61" ry="4.7"/>
  <path class="cls-1" d="M328.63 143.99l32.71 46.76 4.48-1.57-30.46-44.11-6.73-1.08zM441.18 122.73l6.19-.69 5.82-1.01 3.67-.9 3.58-1.19 44.09 71.81h-3.31l-68.11-67.49 8.07-.53z"/>
  <path class="cls-1" d="M433.11 123.26l5-82.37 5.21-6.26 101.94 156.12h-8.94l-91.8-120.13-3.34 52.11-8.07.53zM584.66 69.59l133.53-6.79 78.14 97.66-78.14-81.7-125.81 9.08s-1.98-12.25-7.72-18.25z"/>
  <path class="cls-1" d="M592.85 92.14l124.33 32.4 79.15 66.21-79.15-47.66-131.95-37.83s7.66-2.49 7.62-13.12z"/>
</svg>
