<svg id="Calque_2" data-name="Calque 2" xmlns="http://www.w3.org/2000/svg" viewBox="0 0 813.6 427.79"><defs><style>.cls-1{fill:#059e2d;}.cls-1,.cls-2,.cls-3,.cls-4,.cls-5{stroke:#000;stroke-miterlimit:10;}.cls-2{fill:#04942a;}.cls-3{fill:#06b131;}.cls-4{fill:#06a32c;stroke-width:0.5px;}.cls-5{fill:#07cf3a;}</style></defs><path class="cls-1" d="M458,267.14c-12,4.55-36.9,22.5-41.7,26.7s-33,29.7-20.78,38.05a32.73,32.73,0,0,0,9.57,4c-1,4.48-.27,8.41,10.05,9.06,10.8.67,29.66-.49,32.66,6.11s-2.4,42.9,0,46.8,12.3,9.6,12.3,5.7.3-5.4-4.2-9.3-1.5-33-3.3-39.6c-1.7-6.25,6.54-12.09-28-16.07,13.69.33,27-2.59,28.92-10.55,3.6-14.7,26.4-52.2,30.9-58.2S512.72,244,512.72,244C500.4,249.37,470,262.58,458,267.14Z"/><path class="cls-1" d="M468.58,110.26c-8.1-10.57-3.6-23.85-3.6-23.85-5.37-2.27-22.23-12.07-37.23-14.79a8.57,8.57,0,0,1-2.54-1,10.34,10.34,0,0,0-2.59-.94c-4.12-1-6.47-7.72-6.47-7.72,4.17-6.91-1.57-5.4-2-16.65S419.08,33.21,418,26s-18.67-.22-14.62,4.73,5.85,7.65,7.42,17.32-4.05,11.08-2.81,23.68c0,0-.08.3-.13.6a4.49,4.49,0,0,1-.47,1.33c-4,7.79,18.1,29.73,28.39,35.69,11.25,6.53,18.67,9,22.56,19.18l14.21-.92S476.68,120.84,468.58,110.26Z"/><path class="cls-1" d="M597.28,87.81a10.9,10.9,0,0,1-1.8-4c-7.43,0-11.44.22-13.94,0s-6.31-5.4-9-10.24-40.7-35.95-51.85-30.18h0A34.83,34.83,0,0,0,514.93,42c-43,34.65,3.27,73.36,14,86.36,10.2,12.34,11.77-.81,11.77-.81,12.44-31.11,10.85-51,4.46-63.69A111.23,111.23,0,0,1,575,88.79S598.85,90.21,597.28,87.81Z"/><path class="cls-1" d="M624.8,361.34c-1.5-4.2-18.9,1.36-37.8-22.72,0,0-8.1-3.08-49.8,7.42a24,24,0,0,1-7.49-1.48c13.35-6.37,28.3-31.44,29.09-34.82,1.2-5.1,5.68-56.33-5.1-71.7,0,0,.21-11.61-3.64-17.66s-16.28,8-16.28,8c4,7.61,6.72,5.51,2.22,14.21s-28.5,37.8-28.8,41.4-6.05,16.2,5.52,50.7c1.86,5.54,4.28,8.78,7,10.31h0c5.44,10.39,33,9.49,56.14,4.09,0,0,10.5-2.4,43.8,18.9C619.7,367.94,626.3,365.54,624.8,361.34Z"/><path class="cls-2" d="M756.9,329.69c-.32-.32-.62-.59-.9-.83a9,9,0,0,0-1.9-2c-6.3-5.1-10.2-12-10.5-13.5s-4.2-7.2-14.7-1.8-19.5,11.7-23.7,8.7,8.7-5.1,8.1-8.1,3.6-10.8-9-15.3-1.8-13.17,2.7-14.39-4.2-4.81-8.7-7.21,1.5-7.8,7.5-8.4,0-14.1-10.8-18-10-10.2-30.79-12.6-39-21.7-53-42.65S591,185.38,591,185.38c7.42,17.56,10.12,22.06,6.22,27.76s-35.4,35.1-42.6,43.8,36.3,55.5,131.1,75a6.83,6.83,0,0,1,6.9-3c4.48.89,10.16,12.19,60.8,7.86h0c3.85,2.34,8.5,7.14,8.2,14s-3.45,22.35-2.85,24.3,5.85,7.05,7.5,5.1-1.65-.3-1.5-6.6,1.68-8.55,2-10.8S764.26,336.93,756.9,329.69Z"/><path class="cls-1" d="M785,142.94c-28.5,9.6-43.5-.6-39.9-5.7s5.4-24.6,1.5-39.11c10.5-9.7,8.1-18.49,5.74-20.29s-.64-8.1,0-9.12-6.6-3.18-8.7-4.08S742.1,61,737,55s-30.9-5.1-69.07-6.9-83,6.3-76.13,25.2,8.7,35.7,19.43,58.72c0,0,5.47,22.28,8.47,16.88s35.67-16.88,35.67-16.88c41.3,10.28,65.88,4.67,72.9-1.35,6.78,9,31.34,31.08,45,23.33C789.2,145,785,142.94,785,142.94Z"/><path class="cls-3" d="M649.25,147.06a48.71,48.71,0,0,0-20.66,4.43c.36-1.14,0-1.73-1.61-1.73-7.88,0-6.53-20-14.4-19.35-4.9,6.75-21.57,17.94-31.49,23.49-12.16-3.75-27.15-7.43-40.1-25,1.72-2.44-9.79-5.55-12-.56,0,16.24-34.8,3.07-58.57-2.21-15.75,8.32-85.9-19.18-105.75-30.6L360.42,95c-15.75-19.74-29.78-26-65.32-17.86-39.15,9-38.7-1.35-73.8,16-34.63,17.1-116.56,16.89-110.1,69-10.9,8.53-22.61,23.9-18.48,37.64-12.17,9.84-58.17,32.81-64.24,46.63-6.53,14.85,72.45,36.9,100.8,70.87,2.62,14.18-14,28.13,68.85,58.5,79.27,3.68,126-3.15,138.6-11s36.67,12.82,59.4-34c4.7-9.69,9-19.65,12.84-29.34,15.08-10.85,49.89-35.42,60.13-38.68,13.2-4.2,53.4-20.4,62.4-31.8s22.8-9,27.6-15,17.48-13.51,25.33-33.59c8.5,3.69,29.42,16,36.21,10.51,7,5.78,17.2,9.43,28.61,9.43,21,0,38-12.34,38-27.57S670.25,147.06,649.25,147.06Z"/><ellipse class="cls-4" cx="687.28" cy="184.67" rx="5.92" ry="1.58"/><ellipse class="cls-4" cx="685.7" cy="164.95" rx="6.6" ry="1.95"/><ellipse class="cls-4" cx="686.6" cy="169" rx="4.35" ry="0.75"/><ellipse class="cls-4" cx="688.48" cy="180.62" rx="3.83" ry="0.67"/><circle class="cls-5" cx="664.21" cy="155.72" r="5.51"/><circle class="cls-5" cx="663.31" cy="195.22" r="4.61"/></svg>