<?xml version="1.0" standalone="no"?>
<!DOCTYPE svg PUBLIC "-//W3C//DTD SVG 20010904//EN"
 "http://www.w3.org/TR/2001/REC-SVG-20010904/DTD/svg10.dtd">
<svg version="1.0" xmlns="http://www.w3.org/2000/svg"
 width="700.000000pt" height="700.000000pt" viewBox="0 0 700.000000 700.000000"
 preserveAspectRatio="xMidYMid meet">
<metadata>
Created by potrace 1.11, written by Peter Selinger 2001-2013
</metadata>
<g transform="translate(0.000000,700.000000) scale(0.100000,-0.100000)"
fill="#000000" stroke="none">
<path d="M1615 6610 l-86 -120 901 -1252 900 -1252 -2 -325 -3 -325 -105 -47
c-58 -26 -600 -269 -1205 -539 -605 -270 -1103 -494 -1106 -498 -5 -6 57 -292
66 -300 4 -4 125 50 1483 657 469 209 857 381 862 381 7 0 9 -169 8 -487 l-3
-486 -465 -291 c-1430 -896 -1797 -1126 -1813 -1138 -18 -14 -17 -20 28 -161
42 -132 49 -146 65 -137 10 5 231 143 492 306 1387 869 1670 1046 1684 1051
12 4 14 -26 14 -201 l0 -206 265 0 265 0 0 176 c0 145 2 175 14 171 7 -3 371
-229 807 -503 701 -439 1241 -776 1276 -797 8 -5 27 38 59 138 42 127 47 147
34 159 -8 7 -445 283 -970 611 -525 329 -1013 634 -1085 679 l-130 82 -3 497
c-1 273 1 497 4 497 6 0 119 -50 1074 -477 1019 -456 1172 -524 1177 -519 7 6
76 297 72 300 -2 2 -527 236 -1166 522 l-1163 518 0 414 0 414 847 1176 c465
647 846 1183 847 1190 1 17 -157 242 -169 238 -5 -1 -345 -469 -755 -1039
-411 -571 -752 -1043 -758 -1049 -9 -9 -12 63 -12 309 l0 320 246 639 c136
351 249 649 251 660 4 19 -7 26 -102 63 -60 23 -112 40 -117 39 -5 -2 -129
-316 -276 -698 -147 -382 -272 -694 -277 -692 -6 2 -110 314 -232 694 -122
380 -224 693 -227 695 -9 10 -236 -72 -232 -83 2 -6 100 -308 218 -670 l213
-659 3 -377 c2 -208 -1 -378 -5 -378 -4 1 -368 502 -808 1115 -440 613 -803
1114 -807 1115 -4 0 -46 -54 -93 -120z m2085 -3355 l0 -1855 -105 0 -105 0 0
1855 0 1855 105 0 105 0 0 -1855z"/>
</g>
</svg>
